<mxfile host="Electron" agent="Mozilla/5.0 (Windows NT 10.0; Win64; x64) AppleWebKit/537.36 (KHTML, like Gecko) draw.io/26.2.15 Chrome/134.0.6998.205 Electron/35.2.1 Safari/537.36" version="26.2.15">
  <diagram name="Page-1" id="pZk0G-ApoMCyqM-fFTQZ">
    <mxGraphModel dx="464" dy="2014" grid="1" gridSize="10" guides="1" tooltips="1" connect="1" arrows="1" fold="1" page="1" pageScale="1" pageWidth="850" pageHeight="1100" math="0" shadow="0">
      <root>
        <mxCell id="0" />
        <mxCell id="1" parent="0" />
        <mxCell id="gGAEMzYcTli_5GYAbZcW-39" style="edgeStyle=orthogonalEdgeStyle;rounded=0;orthogonalLoop=1;jettySize=auto;html=1;endArrow=block;endFill=0;entryX=0.25;entryY=1;entryDx=0;entryDy=0;" edge="1" parent="1" source="gGAEMzYcTli_5GYAbZcW-1">
          <mxGeometry relative="1" as="geometry">
            <mxPoint x="640" y="63" as="targetPoint" />
            <Array as="points">
              <mxPoint x="400" y="200" />
              <mxPoint x="640" y="200" />
            </Array>
          </mxGeometry>
        </mxCell>
        <mxCell id="gGAEMzYcTli_5GYAbZcW-1" value="CombustaoFactory" style="swimlane;fontStyle=1;align=center;verticalAlign=top;childLayout=stackLayout;horizontal=1;startSize=26;horizontalStack=0;resizeParent=1;resizeParentMax=0;resizeLast=0;collapsible=1;marginBottom=0;whiteSpace=wrap;html=1;" vertex="1" parent="1">
          <mxGeometry x="320" y="240" width="160" height="100" as="geometry" />
        </mxCell>
        <mxCell id="gGAEMzYcTli_5GYAbZcW-2" value="+ tipoTanque: String" style="text;strokeColor=none;fillColor=none;align=left;verticalAlign=top;spacingLeft=4;spacingRight=4;overflow=hidden;rotatable=0;points=[[0,0.5],[1,0.5]];portConstraint=eastwest;whiteSpace=wrap;html=1;" vertex="1" parent="gGAEMzYcTli_5GYAbZcW-1">
          <mxGeometry y="26" width="160" height="26" as="geometry" />
        </mxCell>
        <mxCell id="gGAEMzYcTli_5GYAbZcW-3" value="" style="line;strokeWidth=1;fillColor=none;align=left;verticalAlign=middle;spacingTop=-1;spacingLeft=3;spacingRight=3;rotatable=0;labelPosition=right;points=[];portConstraint=eastwest;strokeColor=inherit;" vertex="1" parent="gGAEMzYcTli_5GYAbZcW-1">
          <mxGeometry y="52" width="160" height="8" as="geometry" />
        </mxCell>
        <mxCell id="gGAEMzYcTli_5GYAbZcW-4" value="+ criarMotos(): Motor&lt;br&gt;+ criarTanque(): Tanque" style="text;strokeColor=none;fillColor=none;align=left;verticalAlign=top;spacingLeft=4;spacingRight=4;overflow=hidden;rotatable=0;points=[[0,0.5],[1,0.5]];portConstraint=eastwest;whiteSpace=wrap;html=1;" vertex="1" parent="gGAEMzYcTli_5GYAbZcW-1">
          <mxGeometry y="60" width="160" height="40" as="geometry" />
        </mxCell>
        <mxCell id="gGAEMzYcTli_5GYAbZcW-5" value="EletricoFactory" style="swimlane;fontStyle=1;align=center;verticalAlign=top;childLayout=stackLayout;horizontal=1;startSize=26;horizontalStack=0;resizeParent=1;resizeParentMax=0;resizeLast=0;collapsible=1;marginBottom=0;whiteSpace=wrap;html=1;" vertex="1" parent="1">
          <mxGeometry x="881" y="240" width="160" height="100" as="geometry" />
        </mxCell>
        <mxCell id="gGAEMzYcTli_5GYAbZcW-6" value="+ autonomiaBateria: String" style="text;strokeColor=none;fillColor=none;align=left;verticalAlign=top;spacingLeft=4;spacingRight=4;overflow=hidden;rotatable=0;points=[[0,0.5],[1,0.5]];portConstraint=eastwest;whiteSpace=wrap;html=1;" vertex="1" parent="gGAEMzYcTli_5GYAbZcW-5">
          <mxGeometry y="26" width="160" height="26" as="geometry" />
        </mxCell>
        <mxCell id="gGAEMzYcTli_5GYAbZcW-7" value="" style="line;strokeWidth=1;fillColor=none;align=left;verticalAlign=middle;spacingTop=-1;spacingLeft=3;spacingRight=3;rotatable=0;labelPosition=right;points=[];portConstraint=eastwest;strokeColor=inherit;" vertex="1" parent="gGAEMzYcTli_5GYAbZcW-5">
          <mxGeometry y="52" width="160" height="8" as="geometry" />
        </mxCell>
        <mxCell id="gGAEMzYcTli_5GYAbZcW-8" value="+ criarMotos(): Motor&lt;br&gt;+ criarBateria(): Bateria" style="text;strokeColor=none;fillColor=none;align=left;verticalAlign=top;spacingLeft=4;spacingRight=4;overflow=hidden;rotatable=0;points=[[0,0.5],[1,0.5]];portConstraint=eastwest;whiteSpace=wrap;html=1;" vertex="1" parent="gGAEMzYcTli_5GYAbZcW-5">
          <mxGeometry y="60" width="160" height="40" as="geometry" />
        </mxCell>
        <mxCell id="gGAEMzYcTli_5GYAbZcW-15" style="edgeStyle=orthogonalEdgeStyle;rounded=0;orthogonalLoop=1;jettySize=auto;html=1;entryX=0.516;entryY=1.009;entryDx=0;entryDy=0;entryPerimeter=0;endArrow=block;endFill=0;" edge="1" parent="1">
          <mxGeometry relative="1" as="geometry">
            <mxPoint x="402.56000000000006" y="340.3599999999999" as="targetPoint" />
            <mxPoint x="240" y="440" as="sourcePoint" />
            <Array as="points">
              <mxPoint x="240" y="400" />
              <mxPoint x="403" y="400" />
            </Array>
          </mxGeometry>
        </mxCell>
        <mxCell id="gGAEMzYcTli_5GYAbZcW-9" value="Motor" style="swimlane;fontStyle=1;align=center;verticalAlign=top;childLayout=stackLayout;horizontal=1;startSize=26;horizontalStack=0;resizeParent=1;resizeParentMax=0;resizeLast=0;collapsible=1;marginBottom=0;whiteSpace=wrap;html=1;" vertex="1" parent="1">
          <mxGeometry x="160" y="440" width="160" height="52" as="geometry" />
        </mxCell>
        <mxCell id="gGAEMzYcTli_5GYAbZcW-10" value="+&amp;nbsp;infoMotor()" style="text;strokeColor=none;fillColor=none;align=left;verticalAlign=top;spacingLeft=4;spacingRight=4;overflow=hidden;rotatable=0;points=[[0,0.5],[1,0.5]];portConstraint=eastwest;whiteSpace=wrap;html=1;" vertex="1" parent="gGAEMzYcTli_5GYAbZcW-9">
          <mxGeometry y="26" width="160" height="26" as="geometry" />
        </mxCell>
        <mxCell id="gGAEMzYcTli_5GYAbZcW-16" style="edgeStyle=orthogonalEdgeStyle;rounded=0;orthogonalLoop=1;jettySize=auto;html=1;endArrow=none;startFill=0;" edge="1" parent="1" source="gGAEMzYcTli_5GYAbZcW-13">
          <mxGeometry relative="1" as="geometry">
            <mxPoint x="400" y="400" as="targetPoint" />
            <Array as="points">
              <mxPoint x="560" y="400" />
              <mxPoint x="420" y="400" />
            </Array>
          </mxGeometry>
        </mxCell>
        <mxCell id="gGAEMzYcTli_5GYAbZcW-13" value="Tanque" style="swimlane;fontStyle=1;align=center;verticalAlign=top;childLayout=stackLayout;horizontal=1;startSize=26;horizontalStack=0;resizeParent=1;resizeParentMax=0;resizeLast=0;collapsible=1;marginBottom=0;whiteSpace=wrap;html=1;" vertex="1" parent="1">
          <mxGeometry x="480" y="440" width="160" height="52" as="geometry" />
        </mxCell>
        <mxCell id="gGAEMzYcTli_5GYAbZcW-14" value="+ infoTanque()" style="text;strokeColor=none;fillColor=none;align=left;verticalAlign=top;spacingLeft=4;spacingRight=4;overflow=hidden;rotatable=0;points=[[0,0.5],[1,0.5]];portConstraint=eastwest;whiteSpace=wrap;html=1;" vertex="1" parent="gGAEMzYcTli_5GYAbZcW-13">
          <mxGeometry y="26" width="160" height="26" as="geometry" />
        </mxCell>
        <mxCell id="gGAEMzYcTli_5GYAbZcW-28" style="edgeStyle=orthogonalEdgeStyle;rounded=0;orthogonalLoop=1;jettySize=auto;html=1;entryX=0.516;entryY=1.009;entryDx=0;entryDy=0;entryPerimeter=0;endArrow=block;endFill=0;" edge="1" parent="1">
          <mxGeometry relative="1" as="geometry">
            <mxPoint x="963.5600000000001" y="340.3599999999999" as="targetPoint" />
            <mxPoint x="801" y="440" as="sourcePoint" />
            <Array as="points">
              <mxPoint x="801" y="400" />
              <mxPoint x="964" y="400" />
            </Array>
          </mxGeometry>
        </mxCell>
        <mxCell id="gGAEMzYcTli_5GYAbZcW-29" value="Bateria" style="swimlane;fontStyle=1;align=center;verticalAlign=top;childLayout=stackLayout;horizontal=1;startSize=26;horizontalStack=0;resizeParent=1;resizeParentMax=0;resizeLast=0;collapsible=1;marginBottom=0;whiteSpace=wrap;html=1;" vertex="1" parent="1">
          <mxGeometry x="721" y="440" width="160" height="52" as="geometry" />
        </mxCell>
        <mxCell id="gGAEMzYcTli_5GYAbZcW-30" value="+ infoBateria()" style="text;strokeColor=none;fillColor=none;align=left;verticalAlign=top;spacingLeft=4;spacingRight=4;overflow=hidden;rotatable=0;points=[[0,0.5],[1,0.5]];portConstraint=eastwest;whiteSpace=wrap;html=1;" vertex="1" parent="gGAEMzYcTli_5GYAbZcW-29">
          <mxGeometry y="26" width="160" height="26" as="geometry" />
        </mxCell>
        <mxCell id="gGAEMzYcTli_5GYAbZcW-31" style="edgeStyle=orthogonalEdgeStyle;rounded=0;orthogonalLoop=1;jettySize=auto;html=1;endArrow=none;startFill=0;" edge="1" parent="1" source="gGAEMzYcTli_5GYAbZcW-32">
          <mxGeometry relative="1" as="geometry">
            <mxPoint x="961" y="400" as="targetPoint" />
            <Array as="points">
              <mxPoint x="1121" y="400" />
              <mxPoint x="981" y="400" />
            </Array>
          </mxGeometry>
        </mxCell>
        <mxCell id="gGAEMzYcTli_5GYAbZcW-32" value="Bateria" style="swimlane;fontStyle=1;align=center;verticalAlign=top;childLayout=stackLayout;horizontal=1;startSize=26;horizontalStack=0;resizeParent=1;resizeParentMax=0;resizeLast=0;collapsible=1;marginBottom=0;whiteSpace=wrap;html=1;" vertex="1" parent="1">
          <mxGeometry x="1041" y="440" width="160" height="52" as="geometry" />
        </mxCell>
        <mxCell id="gGAEMzYcTli_5GYAbZcW-33" value="+ infoBateria()" style="text;strokeColor=none;fillColor=none;align=left;verticalAlign=top;spacingLeft=4;spacingRight=4;overflow=hidden;rotatable=0;points=[[0,0.5],[1,0.5]];portConstraint=eastwest;whiteSpace=wrap;html=1;" vertex="1" parent="gGAEMzYcTli_5GYAbZcW-32">
          <mxGeometry y="26" width="160" height="26" as="geometry" />
        </mxCell>
        <mxCell id="gGAEMzYcTli_5GYAbZcW-40" style="edgeStyle=orthogonalEdgeStyle;rounded=0;orthogonalLoop=1;jettySize=auto;html=1;endArrow=block;startFill=0;endFill=0;entryX=0.751;entryY=1.015;entryDx=0;entryDy=0;entryPerimeter=0;" edge="1" parent="1" source="gGAEMzYcTli_5GYAbZcW-5">
          <mxGeometry relative="1" as="geometry">
            <mxPoint x="720.1600000000001" y="63.75" as="targetPoint" />
            <Array as="points">
              <mxPoint x="961" y="200" />
              <mxPoint x="720" y="200" />
              <mxPoint x="720" y="80" />
              <mxPoint x="720" y="80" />
            </Array>
          </mxGeometry>
        </mxCell>
        <mxCell id="gGAEMzYcTli_5GYAbZcW-45" style="edgeStyle=orthogonalEdgeStyle;rounded=0;orthogonalLoop=1;jettySize=auto;html=1;entryX=0.5;entryY=1;entryDx=0;entryDy=0;endArrow=none;startFill=0;dashed=1;" edge="1" parent="1" source="gGAEMzYcTli_5GYAbZcW-41" target="gGAEMzYcTli_5GYAbZcW-9">
          <mxGeometry relative="1" as="geometry" />
        </mxCell>
        <mxCell id="gGAEMzYcTli_5GYAbZcW-41" value="MotorCombustao" style="swimlane;fontStyle=1;align=center;verticalAlign=top;childLayout=stackLayout;horizontal=1;startSize=26;horizontalStack=0;resizeParent=1;resizeParentMax=0;resizeLast=0;collapsible=1;marginBottom=0;whiteSpace=wrap;html=1;" vertex="1" parent="1">
          <mxGeometry x="160" y="560" width="160" height="52" as="geometry" />
        </mxCell>
        <mxCell id="gGAEMzYcTli_5GYAbZcW-42" value="+&amp;nbsp;infoMotor()" style="text;strokeColor=none;fillColor=none;align=left;verticalAlign=top;spacingLeft=4;spacingRight=4;overflow=hidden;rotatable=0;points=[[0,0.5],[1,0.5]];portConstraint=eastwest;whiteSpace=wrap;html=1;" vertex="1" parent="gGAEMzYcTli_5GYAbZcW-41">
          <mxGeometry y="26" width="160" height="26" as="geometry" />
        </mxCell>
        <mxCell id="gGAEMzYcTli_5GYAbZcW-46" style="edgeStyle=orthogonalEdgeStyle;rounded=0;orthogonalLoop=1;jettySize=auto;html=1;entryX=0.5;entryY=0.974;entryDx=0;entryDy=0;entryPerimeter=0;dashed=1;endArrow=none;startFill=0;" edge="1" parent="1" source="gGAEMzYcTli_5GYAbZcW-43" target="gGAEMzYcTli_5GYAbZcW-14">
          <mxGeometry relative="1" as="geometry">
            <mxPoint x="560" y="500" as="targetPoint" />
          </mxGeometry>
        </mxCell>
        <mxCell id="gGAEMzYcTli_5GYAbZcW-43" value="Motor" style="swimlane;fontStyle=1;align=center;verticalAlign=top;childLayout=stackLayout;horizontal=1;startSize=26;horizontalStack=0;resizeParent=1;resizeParentMax=0;resizeLast=0;collapsible=1;marginBottom=0;whiteSpace=wrap;html=1;" vertex="1" parent="1">
          <mxGeometry x="480" y="560" width="160" height="52" as="geometry" />
        </mxCell>
        <mxCell id="gGAEMzYcTli_5GYAbZcW-44" value="+ infoMotor()" style="text;strokeColor=none;fillColor=none;align=left;verticalAlign=top;spacingLeft=4;spacingRight=4;overflow=hidden;rotatable=0;points=[[0,0.5],[1,0.5]];portConstraint=eastwest;whiteSpace=wrap;html=1;" vertex="1" parent="gGAEMzYcTli_5GYAbZcW-43">
          <mxGeometry y="26" width="160" height="26" as="geometry" />
        </mxCell>
        <mxCell id="gGAEMzYcTli_5GYAbZcW-56" style="edgeStyle=orthogonalEdgeStyle;rounded=0;orthogonalLoop=1;jettySize=auto;html=1;entryX=0.497;entryY=1.038;entryDx=0;entryDy=0;entryPerimeter=0;dashed=1;endArrow=none;startFill=0;" edge="1" parent="1" source="gGAEMzYcTli_5GYAbZcW-52" target="gGAEMzYcTli_5GYAbZcW-30">
          <mxGeometry relative="1" as="geometry">
            <mxPoint x="801" y="500" as="targetPoint" />
          </mxGeometry>
        </mxCell>
        <mxCell id="gGAEMzYcTli_5GYAbZcW-52" value="Bateria200km" style="swimlane;fontStyle=1;align=center;verticalAlign=top;childLayout=stackLayout;horizontal=1;startSize=26;horizontalStack=0;resizeParent=1;resizeParentMax=0;resizeLast=0;collapsible=1;marginBottom=0;whiteSpace=wrap;html=1;" vertex="1" parent="1">
          <mxGeometry x="721" y="560" width="160" height="52" as="geometry" />
        </mxCell>
        <mxCell id="gGAEMzYcTli_5GYAbZcW-53" value="+ infoBateria()" style="text;strokeColor=none;fillColor=none;align=left;verticalAlign=top;spacingLeft=4;spacingRight=4;overflow=hidden;rotatable=0;points=[[0,0.5],[1,0.5]];portConstraint=eastwest;whiteSpace=wrap;html=1;" vertex="1" parent="gGAEMzYcTli_5GYAbZcW-52">
          <mxGeometry y="26" width="160" height="26" as="geometry" />
        </mxCell>
        <mxCell id="gGAEMzYcTli_5GYAbZcW-57" style="edgeStyle=orthogonalEdgeStyle;rounded=0;orthogonalLoop=1;jettySize=auto;html=1;endArrow=none;startFill=0;entryX=0.498;entryY=0.998;entryDx=0;entryDy=0;entryPerimeter=0;dashed=1;" edge="1" parent="1" source="gGAEMzYcTli_5GYAbZcW-54" target="gGAEMzYcTli_5GYAbZcW-33">
          <mxGeometry relative="1" as="geometry">
            <mxPoint x="1121" y="500" as="targetPoint" />
          </mxGeometry>
        </mxCell>
        <mxCell id="gGAEMzYcTli_5GYAbZcW-54" value="Bateria300km" style="swimlane;fontStyle=1;align=center;verticalAlign=top;childLayout=stackLayout;horizontal=1;startSize=26;horizontalStack=0;resizeParent=1;resizeParentMax=0;resizeLast=0;collapsible=1;marginBottom=0;whiteSpace=wrap;html=1;" vertex="1" parent="1">
          <mxGeometry x="1041" y="560" width="160" height="52" as="geometry" />
        </mxCell>
        <mxCell id="gGAEMzYcTli_5GYAbZcW-55" value="+ infoBateria()" style="text;strokeColor=none;fillColor=none;align=left;verticalAlign=top;spacingLeft=4;spacingRight=4;overflow=hidden;rotatable=0;points=[[0,0.5],[1,0.5]];portConstraint=eastwest;whiteSpace=wrap;html=1;" vertex="1" parent="gGAEMzYcTli_5GYAbZcW-54">
          <mxGeometry y="26" width="160" height="26" as="geometry" />
        </mxCell>
        <mxCell id="gGAEMzYcTli_5GYAbZcW-58" value="Veiculo" style="swimlane;fontStyle=1;align=center;verticalAlign=top;childLayout=stackLayout;horizontal=1;startSize=26;horizontalStack=0;resizeParent=1;resizeParentMax=0;resizeLast=0;collapsible=1;marginBottom=0;whiteSpace=wrap;html=1;" vertex="1" parent="1">
          <mxGeometry x="600" y="-80" width="160" height="140" as="geometry" />
        </mxCell>
        <mxCell id="gGAEMzYcTli_5GYAbZcW-59" value="- motor: Motor&lt;div&gt;-- tanque: Tanque&lt;/div&gt;&lt;div&gt;- beteria: Bateria&lt;/div&gt;" style="text;strokeColor=none;fillColor=none;align=left;verticalAlign=top;spacingLeft=4;spacingRight=4;overflow=hidden;rotatable=0;points=[[0,0.5],[1,0.5]];portConstraint=eastwest;whiteSpace=wrap;html=1;" vertex="1" parent="gGAEMzYcTli_5GYAbZcW-58">
          <mxGeometry y="26" width="160" height="64" as="geometry" />
        </mxCell>
        <mxCell id="gGAEMzYcTli_5GYAbZcW-60" value="w" style="line;strokeWidth=1;fillColor=none;align=left;verticalAlign=middle;spacingTop=-1;spacingLeft=3;spacingRight=3;rotatable=0;labelPosition=right;points=[];portConstraint=eastwest;strokeColor=inherit;" vertex="1" parent="gGAEMzYcTli_5GYAbZcW-58">
          <mxGeometry y="90" width="160" height="8" as="geometry" />
        </mxCell>
        <mxCell id="gGAEMzYcTli_5GYAbZcW-61" value="+ Veiculo()&lt;br&gt;+ mostraInfo()" style="text;strokeColor=none;fillColor=none;align=left;verticalAlign=top;spacingLeft=4;spacingRight=4;overflow=hidden;rotatable=0;points=[[0,0.5],[1,0.5]];portConstraint=eastwest;whiteSpace=wrap;html=1;" vertex="1" parent="gGAEMzYcTli_5GYAbZcW-58">
          <mxGeometry y="98" width="160" height="42" as="geometry" />
        </mxCell>
      </root>
    </mxGraphModel>
  </diagram>
</mxfile>
